<svg width="71" height="71" viewBox="0 0 71 71" fill="none" xmlns="http://www.w3.org/2000/svg">
<circle cx="35.5" cy="35.5" r="35.5" fill="#00A796"/>
<path fill-rule="evenodd" clip-rule="evenodd" d="M64.7842 25.5136C64.7842 25.5136 64.5207 25.3667 64.3241 25.6738C64.3241 25.6738 63.3244 26.8007 62.5349 26.6657C61.7454 26.5314 59.2472 26.6328 58.3526 26.772C57.458 26.9112 56.4195 26.3964 56.8533 25.9914C56.8533 25.9914 56.8404 25.8445 57.6555 25.5626C58.4712 25.2807 59.01 24.8764 59.01 24.8764C59.01 24.8764 60.2438 24.3133 60.8757 23.7236C61.5083 23.1346 61.0618 23.0003 61.0618 23.0003C61.0618 23.0003 60.7466 22.9639 56.9193 23.6991C56.9193 23.6991 55.7222 23.8096 54.7751 24.8883C54.6004 25.0876 54.4464 25.2499 54.3122 25.3828C54.3061 25.3828 54.3002 25.3835 54.2934 25.3835C54.2956 25.387 54.2964 25.3905 54.2993 25.3947C54.1126 25.578 53.9632 25.7025 53.8468 25.7864C53.3073 25.9753 52.4728 26.097 52.2882 26.1075C49.9256 26.2397 47.5872 26.5545 45.2563 26.9322C41.6368 27.5184 38.099 28.4648 34.8855 30.0765C32.0172 31.5147 29.1835 31.6336 26.1742 30.9621C23.832 30.4402 21.5123 29.8254 19.1633 29.3364C16.6898 28.8216 13.3697 28.0081 10.8166 28.0095C8.28154 28.0102 5.62263 29.7806 6.04439 33.0914C6.24702 34.6723 6.3731 34.6219 7.12882 36.5763C9.08679 40.807 11.8838 44.4346 14.9487 47.7286C15.2556 48.0728 15.7164 48.0873 16.5914 47.7852C16.6995 47.6719 15.8657 46.9319 15.6601 46.7402C15.4868 46.5786 15.1581 46.2421 14.9869 46.0315C14.5599 45.5048 14.1509 44.9649 13.7284 44.4338C13.5746 44.2402 12.8256 43.2664 12.6763 43.0362C12.235 42.3521 11.1708 40.56 11.0065 40.2565C10.1059 38.5944 7.72768 34.6051 8.10442 32.238C8.50517 30.4158 10.3146 29.4749 12.3536 29.8065C16.5021 30.4815 20.5809 31.4336 24.6702 32.3506C26.4744 32.7556 28.2965 32.9347 30.1284 33.204C31.8349 33.4558 33.4905 33.0564 35.0273 32.3975C37.7748 31.2202 40.5771 30.1919 43.4851 29.4211C45.6705 28.8419 47.9061 28.4956 50.1621 28.2599C50.4944 28.2249 51.7928 28.1431 52.1597 28.05C53.1999 27.7849 53.8476 28.1403 54.2746 29.0216C54.4285 29.3406 54.6462 29.6666 54.9245 29.8925C55.4964 30.357 55.4055 30.6431 54.8705 31.1188C51.9707 33.6937 50.728 37.0534 49.8724 40.5768C49.5872 41.7499 49.7313 42.9607 49.6585 44.2107C48.3107 43.7057 47.1151 43.1384 45.9017 42.6025C43.2517 41.4336 40.9201 39.645 37.7921 39.4121C34.6574 39.1785 31.5842 38.4685 28.5074 37.8592C27.239 37.6088 24.0677 36.8519 23.7772 36.7792C20.7175 36.0118 17.7629 34.9654 14.8218 33.8818C13.7975 33.5048 12.7956 33.7258 12.1239 34.3694C11.5266 34.9423 11.2594 35.7418 11.5033 36.8848C11.6961 37.7914 11.7554 38.6308 13.9318 42.5613C14.4744 43.5406 14.9945 44.3031 15.7126 45.1858C16.1247 45.686 17.5265 47.5047 17.8402 47.6642C18.8338 48 18.9044 47.7027 18.8909 47.6495C18.8413 47.4453 18.6575 47.3347 18.5119 47.1808C15.7104 44.2219 13.7164 40.8636 12.7153 37.0156C12.5404 36.3413 12.4849 35.6928 13.0485 35.1717C13.4988 34.7576 14.0676 34.7597 14.6297 34.8695C14.8181 34.9192 14.9434 34.9961 15.1235 35.0724C22.5074 37.9711 28.8916 39.3681 36.021 40.7405C37.4686 41.0182 39.0033 40.9999 40.2971 41.8793C41.6269 42.7837 43.1378 43.4259 44.5396 44.2234C46.1703 45.1503 48.063 45.6462 49.5144 46.8444C50.1163 47.341 50.7782 47.6299 51.5519 47.7258C54.1365 48.0454 56.6837 47.4201 59.2592 47.4354C59.6111 47.4369 60.2461 47.3662 60.1869 46.7653C60.1305 46.1973 59.5421 46.2603 59.1497 46.1988C58.3061 46.0673 57.4453 46.0302 56.5942 45.9364C54.9905 45.7601 53.5069 45.0137 51.8648 45.0446C51.3538 45.0537 51.2892 44.8656 51.2915 44.4647C51.3065 42.8333 51.5175 41.2253 52.045 39.673C52.7692 37.5507 53.8866 35.6348 55.6644 34.1008C55.8716 33.9224 56.1883 33.5048 56.5043 33.4635C56.6265 33.5258 56.7377 33.5943 56.8164 33.6678C57.0348 33.8713 57.8213 33.9825 58.069 33.9707C58.5883 33.9455 58.9478 33.7657 59.3583 33.3824C59.6885 33.076 59.5647 32.6612 59.5647 32.6612C59.4588 32.2247 59.3605 31.5469 59.4349 31.223C59.7635 29.7624 59.3531 28.8335 59.3531 28.8335C59.7651 28.7251 60.3369 28.597 61.1135 28.4683C63.1128 28.1368 64.0869 27.9171 64.7842 26.6056C64.7842 26.6056 65.2697 25.6976 64.7842 25.5136Z" fill="white"/>
</svg>
