<svg width="46" height="13" viewBox="0 0 46 13" fill="none" xmlns="http://www.w3.org/2000/svg">
<path d="M0.549688 12V0.48H2.72569V5.216H7.87769V0.48H10.0537V12H7.87769V7.248H2.72569V12H0.549688ZM14.6997 12.24C14.081 12.24 13.5557 12.1227 13.1237 11.888C12.697 11.648 12.3717 11.3307 12.1477 10.936C11.929 10.536 11.8197 10.096 11.8197 9.616C11.8197 9.216 11.881 8.85067 12.0037 8.52C12.1264 8.18933 12.3237 7.89867 12.5957 7.648C12.873 7.392 13.2437 7.17867 13.7077 7.008C14.0277 6.89067 14.409 6.78667 14.8517 6.696C15.2944 6.60533 15.7957 6.52 16.3557 6.44C16.9157 6.35467 17.5317 6.26133 18.2037 6.16L17.4197 6.592C17.4197 6.08 17.297 5.704 17.0517 5.464C16.8064 5.224 16.3957 5.104 15.8197 5.104C15.4997 5.104 15.1664 5.18133 14.8197 5.336C14.473 5.49067 14.2304 5.76533 14.0917 6.16L12.1237 5.536C12.3424 4.82133 12.753 4.24 13.3557 3.792C13.9584 3.344 14.7797 3.12 15.8197 3.12C16.5824 3.12 17.2597 3.23733 17.8517 3.472C18.4437 3.70667 18.8917 4.112 19.1957 4.688C19.3664 5.008 19.4677 5.328 19.4997 5.648C19.5317 5.968 19.5477 6.32533 19.5477 6.72V12H17.6437V10.224L17.9157 10.592C17.4944 11.1733 17.0384 11.5947 16.5477 11.856C16.0624 12.112 15.4464 12.24 14.6997 12.24ZM15.1637 10.528C15.5637 10.528 15.8997 10.4587 16.1717 10.32C16.449 10.176 16.6677 10.0133 16.8277 9.832C16.993 9.65067 17.105 9.49867 17.1637 9.376C17.2757 9.14133 17.3397 8.86933 17.3557 8.56C17.377 8.24533 17.3877 7.984 17.3877 7.776L18.0277 7.936C17.3824 8.04267 16.8597 8.13333 16.4597 8.208C16.0597 8.27733 15.737 8.34133 15.4917 8.4C15.2464 8.45867 15.0304 8.52267 14.8437 8.592C14.6304 8.67733 14.457 8.77067 14.3237 8.872C14.1957 8.968 14.0997 9.07467 14.0357 9.192C13.977 9.30933 13.9477 9.44 13.9477 9.584C13.9477 9.78133 13.9957 9.952 14.0917 10.096C14.193 10.2347 14.3344 10.3413 14.5157 10.416C14.697 10.4907 14.913 10.528 15.1637 10.528ZM27.5158 12V7.92C27.5158 7.72267 27.5051 7.472 27.4838 7.168C27.4625 6.85867 27.3958 6.54933 27.2838 6.24C27.1718 5.93067 26.9878 5.672 26.7318 5.464C26.4811 5.256 26.1238 5.152 25.6598 5.152C25.4731 5.152 25.2731 5.18133 25.0598 5.24C24.8465 5.29867 24.6465 5.41333 24.4598 5.584C24.2731 5.74933 24.1185 5.99467 23.9958 6.32C23.8785 6.64533 23.8198 7.07733 23.8198 7.616L22.5718 7.024C22.5718 6.34133 22.7105 5.70133 22.9878 5.104C23.2651 4.50667 23.6811 4.024 24.2358 3.656C24.7958 3.288 25.4998 3.104 26.3478 3.104C27.0251 3.104 27.5771 3.21867 28.0038 3.448C28.4305 3.67733 28.7611 3.968 28.9958 4.32C29.2358 4.672 29.4065 5.04 29.5078 5.424C29.6091 5.80267 29.6705 6.14933 29.6918 6.464C29.7131 6.77867 29.7238 7.008 29.7238 7.152V12H27.5158ZM21.6118 12V3.36H23.5478V6.224H23.8198V12H21.6118ZM31.9597 2.16V0.24H34.1357V2.16H31.9597ZM31.9597 12V3.36H34.1357V12H31.9597ZM37.2541 12V3.392C37.2541 3.17333 37.2594 2.92533 37.2701 2.648C37.2807 2.37067 37.3234 2.09067 37.3981 1.808C37.4781 1.52533 37.6221 1.26933 37.8301 1.04C38.0967 0.741332 38.3847 0.538666 38.6941 0.431999C39.0087 0.319999 39.3127 0.261333 39.6061 0.256C39.8994 0.245333 40.1501 0.24 40.3581 0.24H41.4301V2H40.4381C40.0967 2 39.8434 2.088 39.6781 2.264C39.5127 2.43467 39.4301 2.64 39.4301 2.88V12H37.2541ZM35.8941 5.04V3.36H41.4301V5.04H35.8941ZM43.1101 2.16V0.24H45.2861V2.16H43.1101ZM43.1101 12V3.36H45.2861V12H43.1101Z" fill="black"/>
</svg>
