<svg width="1193" height="569" viewBox="0 0 1193 569" fill="none" xmlns="http://www.w3.org/2000/svg">
<path d="M135.543 435.7V125.32H201.903V435.7H135.543ZM95.643 442V429.4H243.063V442H95.643ZM95.643 137.92V125.32H243.063V137.92H95.643Z" fill="#C08C2A"/>
<path d="M474.375 215.62C474.095 201.62 471.155 188.74 465.555 176.98C460.235 165.22 452.535 155.84 442.455 148.84C432.375 141.56 420.195 137.92 405.915 137.92H228.255V125.32H491.175V215.62H474.375ZM228.255 442V429.4H388.275V442H228.255ZM268.155 436.12V125.32H334.515V436.12H268.155ZM409.695 351.7C409.415 338.26 406.755 327.2 401.715 318.52C396.675 309.84 388.555 303.4 377.355 299.2C366.155 295 351.315 292.9 332.835 292.9V280.3C351.315 280.3 366.155 278.34 377.355 274.42C388.555 270.5 396.675 264.48 401.715 256.36C406.755 248.24 409.415 238.02 409.695 225.7H426.495V351.7H409.695Z" fill="black"/>
<path d="M544.079 284.305C544.079 421.692 432.045 533.111 293.789 533.111C155.534 533.111 43.5 421.692 43.5 284.305C43.5 146.919 155.534 35.5 293.789 35.5C432.045 35.5 544.079 146.919 544.079 284.305Z" stroke="#C08C2A" stroke-width="9"/>
<path d="M537.5 284.5C537.5 420.386 428.458 530.5 294 530.5C159.542 530.5 50.5 420.386 50.5 284.5C50.5 148.614 159.542 38.5 294 38.5C428.458 38.5 537.5 148.614 537.5 284.5Z" stroke="black" stroke-width="5"/>
<path d="M615.625 148.5H631.25V231H615.625V148.5ZM686.929 178.187C690.429 178.187 693.846 178.917 697.179 180.375C700.513 181.792 703.242 184.062 705.367 187.187C707.534 190.312 708.617 194.396 708.617 199.438V231H692.679V202.187C692.679 197.979 691.679 194.854 689.679 192.812C687.721 190.771 685.138 189.75 681.929 189.75C679.846 189.75 677.846 190.333 675.929 191.5C674.054 192.625 672.513 194.208 671.304 196.25C670.138 198.25 669.554 200.542 669.554 203.125V231H653.679V179.687H669.554V187.875C670.013 186.458 671.054 185 672.679 183.5C674.304 182 676.367 180.75 678.867 179.75C681.367 178.708 684.054 178.187 686.929 178.187ZM749.839 178.187C752.923 178.187 755.777 178.479 758.402 179.062C761.027 179.604 763.235 180.229 765.027 180.937C766.86 181.646 768.069 182.25 768.652 182.75L763.214 192.312C762.381 191.646 760.881 190.854 758.714 189.937C756.589 189.021 754.214 188.562 751.589 188.562C749.214 188.562 747.214 188.979 745.589 189.812C743.964 190.604 743.152 191.812 743.152 193.437C743.152 195.062 744.027 196.354 745.777 197.312C747.527 198.271 749.964 199.104 753.089 199.812C755.714 200.354 758.298 201.187 760.839 202.312C763.381 203.396 765.485 204.979 767.152 207.062C768.819 209.104 769.652 211.833 769.652 215.25C769.652 218.625 768.923 221.437 767.464 223.687C766.048 225.896 764.152 227.646 761.777 228.938C759.402 230.229 756.798 231.146 753.964 231.688C751.131 232.229 748.319 232.5 745.527 232.5C741.902 232.5 738.714 232.146 735.964 231.438C733.214 230.771 730.944 230 729.152 229.125C727.402 228.208 726.152 227.437 725.402 226.812L730.839 216.187C731.923 217.146 733.694 218.208 736.152 219.375C738.652 220.5 741.339 221.062 744.214 221.062C747.214 221.062 749.569 220.542 751.277 219.5C753.027 218.458 753.902 217.062 753.902 215.312C753.902 214.021 753.485 212.979 752.652 212.187C751.819 211.354 750.673 210.667 749.214 210.125C747.756 209.583 746.048 209.104 744.089 208.687C742.298 208.312 740.464 207.771 738.589 207.062C736.714 206.312 734.964 205.333 733.339 204.125C731.714 202.917 730.402 201.417 729.402 199.625C728.402 197.792 727.902 195.604 727.902 193.062C727.902 189.812 728.944 187.104 731.027 184.937C733.11 182.729 735.819 181.062 739.152 179.937C742.485 178.771 746.048 178.187 749.839 178.187ZM788.967 231V179.687H804.78V231H788.967ZM797.092 166.438C794.467 166.438 792.238 165.521 790.405 163.687C788.613 161.854 787.717 159.667 787.717 157.125C787.717 154.583 788.634 152.375 790.467 150.5C792.301 148.625 794.509 147.687 797.092 147.687C798.801 147.687 800.363 148.125 801.78 149C803.196 149.833 804.342 150.958 805.217 152.375C806.092 153.792 806.53 155.375 806.53 157.125C806.53 159.667 805.592 161.854 803.717 163.687C801.884 165.521 799.676 166.438 797.092 166.438ZM852.545 258.438C848.795 258.438 845.191 258.083 841.733 257.375C838.316 256.667 835.212 255.563 832.42 254.063C829.628 252.563 827.295 250.604 825.42 248.188L835.045 238.438C835.92 239.563 837.045 240.688 838.42 241.813C839.837 242.979 841.628 243.938 843.795 244.688C845.962 245.479 848.67 245.875 851.92 245.875C855.003 245.875 857.649 245.271 859.858 244.063C862.108 242.896 863.837 241.229 865.045 239.063C866.295 236.896 866.92 234.375 866.92 231.5V230.062H882.483V232.438C882.483 238.104 881.149 242.875 878.483 246.75C875.816 250.625 872.233 253.542 867.733 255.5C863.233 257.458 858.17 258.438 852.545 258.438ZM866.92 231V222.062C866.545 222.979 865.587 224.271 864.045 225.937C862.503 227.604 860.42 229.125 857.795 230.5C855.212 231.833 852.17 232.5 848.67 232.5C843.753 232.5 839.399 231.333 835.608 229C831.816 226.625 828.837 223.396 826.67 219.312C824.545 215.187 823.483 210.542 823.483 205.375C823.483 200.208 824.545 195.583 826.67 191.5C828.837 187.375 831.816 184.125 835.608 181.75C839.399 179.375 843.753 178.187 848.67 178.187C852.087 178.187 855.045 178.771 857.545 179.937C860.087 181.062 862.128 182.396 863.67 183.937C865.253 185.437 866.274 186.792 866.733 188V179.687H882.483V231H866.92ZM839.045 205.375C839.045 208.25 839.691 210.792 840.983 213C842.274 215.167 843.983 216.854 846.108 218.062C848.233 219.271 850.545 219.875 853.045 219.875C855.67 219.875 858.003 219.271 860.045 218.062C862.087 216.812 863.691 215.104 864.858 212.937C866.066 210.729 866.67 208.208 866.67 205.375C866.67 202.542 866.066 200.042 864.858 197.875C863.691 195.667 862.087 193.937 860.045 192.687C858.003 191.437 855.67 190.812 853.045 190.812C850.545 190.812 848.233 191.437 846.108 192.687C843.983 193.896 842.274 195.604 840.983 197.812C839.691 199.979 839.045 202.5 839.045 205.375ZM936.271 178.187C939.771 178.187 943.188 178.917 946.521 180.375C949.855 181.792 952.584 184.062 954.709 187.187C956.876 190.312 957.959 194.396 957.959 199.438V231H942.021V202.187C942.021 197.979 941.063 194.854 939.146 192.812C937.271 190.771 934.751 189.75 931.584 189.75C929.459 189.75 927.417 190.333 925.459 191.5C923.542 192.625 921.959 194.208 920.709 196.25C919.501 198.25 918.896 200.542 918.896 203.125V231H902.959V145H918.896V187.875C919.313 186.458 920.334 185 921.959 183.5C923.584 182 925.646 180.75 928.146 179.75C930.646 178.708 933.355 178.187 936.271 178.187ZM973.417 179.687H982.667V158.625H998.417V179.687H1010.54V192.875H998.417V211.437C998.417 213.896 998.813 215.812 999.604 217.187C1000.4 218.521 1001.65 219.187 1003.35 219.187C1004.65 219.187 1005.71 218.937 1006.54 218.437C1007.38 217.896 1007.88 217.521 1008.04 217.312L1013.67 228.687C1013.42 228.937 1012.6 229.375 1011.23 230C1009.9 230.625 1008.17 231.188 1006.04 231.688C1003.96 232.229 1001.6 232.5 998.979 232.5C994.271 232.5 990.375 231.146 987.292 228.437C984.208 225.687 982.667 221.437 982.667 215.687V192.875H973.417V179.687ZM1029.82 231V179.687H1045.63V231H1029.82ZM1037.94 166.438C1035.32 166.438 1033.09 165.521 1031.25 163.687C1029.46 161.854 1028.57 159.667 1028.57 157.125C1028.57 154.583 1029.48 152.375 1031.32 150.5C1033.15 148.625 1035.36 147.687 1037.94 147.687C1039.65 147.687 1041.21 148.125 1042.63 149C1044.04 149.833 1045.19 150.958 1046.07 152.375C1046.94 153.792 1047.38 155.375 1047.38 157.125C1047.38 159.667 1046.44 161.854 1044.57 163.687C1042.73 165.521 1040.52 166.438 1037.94 166.438Z" fill="black"/>
<path d="M1067.77 148.5H1113.64V162.312H1083.39V182.75H1111.46V196.5H1083.39V231H1067.77V148.5ZM1134.43 231V179.687H1150.24V231H1134.43ZM1142.56 166.438C1139.93 166.438 1137.7 165.521 1135.87 163.687C1134.08 161.854 1133.18 159.667 1133.18 157.125C1133.18 154.583 1134.1 152.375 1135.93 150.5C1137.76 148.625 1139.97 147.687 1142.56 147.687C1144.26 147.687 1145.83 148.125 1147.24 149C1148.66 149.833 1149.81 150.958 1150.68 152.375C1151.56 153.792 1151.99 155.375 1151.99 157.125C1151.99 159.667 1151.06 161.854 1149.18 163.687C1147.35 165.521 1145.14 166.438 1142.56 166.438Z" fill="#C08C2A"/>
<path d="M611.398 330.9H617.068C618.491 330.9 619.774 331.127 620.918 331.582C622.073 332.026 622.994 332.737 623.683 333.717C624.371 334.697 624.715 335.998 624.715 337.62C624.715 339.218 624.371 340.537 623.683 341.575C622.994 342.602 622.073 343.36 620.918 343.85C619.774 344.34 618.491 344.585 617.068 344.585H613.358V354H611.398V330.9ZM613.358 342.835H616.543C617.663 342.835 618.683 342.672 619.605 342.345C620.527 342.018 621.262 341.476 621.81 340.717C622.37 339.947 622.65 338.921 622.65 337.637C622.65 336.342 622.37 335.339 621.81 334.628C621.262 333.904 620.527 333.397 619.605 333.105C618.683 332.802 617.663 332.65 616.543 332.65H613.358V342.835ZM633.988 352.075L639.273 339.632H641.338L631.713 361.28H629.648L632.903 354L627.005 339.632H629.088L633.988 352.075ZM642.703 339.632H645.695V333.735H647.673V339.632H651.593V341.435H647.673V349.957C647.673 350.914 647.848 351.597 648.198 352.005C648.548 352.413 648.985 352.617 649.51 352.617C650.012 352.617 650.391 352.53 650.648 352.355C650.904 352.18 651.056 352.063 651.103 352.005L652.03 353.527C651.96 353.586 651.803 353.691 651.558 353.842C651.313 353.982 650.992 354.111 650.595 354.228C650.198 354.356 649.72 354.42 649.16 354.42C648.192 354.42 647.369 354.111 646.693 353.492C646.028 352.862 645.695 351.859 645.695 350.482V341.435H642.703V339.632ZM662.282 339.212C663.18 339.212 664.061 339.411 664.924 339.807C665.788 340.192 666.499 340.811 667.059 341.662C667.619 342.502 667.899 343.593 667.899 344.935V354H665.869V345.407C665.869 343.809 665.496 342.66 664.749 341.96C664.014 341.248 663.069 340.892 661.914 340.892C661.133 340.892 660.38 341.114 659.657 341.557C658.945 342.001 658.356 342.607 657.889 343.377C657.423 344.147 657.189 345.011 657.189 345.967V354H655.159V329.92H657.189V342.397C657.271 341.989 657.545 341.54 658.012 341.05C658.49 340.548 659.097 340.117 659.832 339.755C660.578 339.393 661.395 339.212 662.282 339.212ZM678.803 354.42C677.368 354.42 676.09 354.088 674.97 353.423C673.862 352.746 672.987 351.836 672.345 350.692C671.715 349.549 671.4 348.272 671.4 346.86C671.4 345.448 671.715 344.165 672.345 343.01C672.987 341.843 673.862 340.922 674.97 340.245C676.09 339.557 677.368 339.212 678.803 339.212C680.238 339.212 681.503 339.557 682.6 340.245C683.708 340.922 684.578 341.843 685.208 343.01C685.838 344.165 686.153 345.448 686.153 346.86C686.153 348.272 685.838 349.549 685.208 350.692C684.578 351.836 683.708 352.746 682.6 353.423C681.503 354.088 680.238 354.42 678.803 354.42ZM678.803 352.617C679.888 352.617 680.833 352.367 681.638 351.865C682.454 351.363 683.084 350.675 683.528 349.8C683.983 348.925 684.21 347.945 684.21 346.86C684.21 345.763 683.983 344.777 683.528 343.902C683.084 343.016 682.454 342.316 681.638 341.802C680.833 341.277 679.888 341.015 678.803 341.015C677.706 341.015 676.749 341.277 675.933 341.802C675.116 342.316 674.48 343.016 674.025 343.902C673.57 344.777 673.343 345.763 673.343 346.86C673.343 347.945 673.57 348.925 674.025 349.8C674.48 350.675 675.116 351.363 675.933 351.865C676.749 352.367 677.706 352.617 678.803 352.617ZM696.938 339.212C697.848 339.212 698.734 339.411 699.598 339.807C700.461 340.192 701.173 340.811 701.733 341.662C702.293 342.502 702.573 343.593 702.573 344.935V354H700.543V345.407C700.543 343.809 700.169 342.66 699.423 341.96C698.676 341.248 697.719 340.892 696.553 340.892C695.783 340.892 695.036 341.114 694.313 341.557C693.601 342.001 693.012 342.607 692.545 343.377C692.09 344.147 691.863 345.011 691.863 345.967V354H689.868V339.632H691.863V342.397C691.944 341.989 692.218 341.54 692.685 341.05C693.163 340.548 693.77 340.117 694.505 339.755C695.252 339.393 696.063 339.212 696.938 339.212ZM706.919 346.912V345.145H715.932V346.912H706.919ZM720.909 330.9H726.579C728.003 330.9 729.286 331.127 730.429 331.582C731.584 332.026 732.506 332.737 733.194 333.717C733.883 334.697 734.227 335.998 734.227 337.62C734.227 339.218 733.883 340.537 733.194 341.575C732.506 342.602 731.584 343.36 730.429 343.85C729.286 344.34 728.003 344.585 726.579 344.585H722.869V354H720.909V330.9ZM722.869 342.835H726.054C727.174 342.835 728.195 342.672 729.117 342.345C730.038 342.018 730.773 341.476 731.322 340.717C731.882 339.947 732.162 338.921 732.162 337.637C732.162 336.342 731.882 335.339 731.322 334.628C730.773 333.904 730.038 333.397 729.117 333.105C728.195 332.802 727.174 332.65 726.054 332.65H722.869V342.835ZM743.129 354.42C741.694 354.42 740.416 354.088 739.296 353.423C738.188 352.746 737.313 351.836 736.671 350.692C736.041 349.549 735.726 348.272 735.726 346.86C735.726 345.448 736.041 344.165 736.671 343.01C737.313 341.843 738.188 340.922 739.296 340.245C740.416 339.557 741.694 339.212 743.129 339.212C744.564 339.212 745.83 339.557 746.926 340.245C748.035 340.922 748.904 341.843 749.534 343.01C750.164 344.165 750.479 345.448 750.479 346.86C750.479 348.272 750.164 349.549 749.534 350.692C748.904 351.836 748.035 352.746 746.926 353.423C745.83 354.088 744.564 354.42 743.129 354.42ZM743.129 352.617C744.214 352.617 745.159 352.367 745.964 351.865C746.78 351.363 747.41 350.675 747.854 349.8C748.309 348.925 748.536 347.945 748.536 346.86C748.536 345.763 748.309 344.777 747.854 343.902C747.41 343.016 746.78 342.316 745.964 341.802C745.159 341.277 744.214 341.015 743.129 341.015C742.032 341.015 741.075 341.277 740.259 341.802C739.442 342.316 738.806 343.016 738.351 343.902C737.896 344.777 737.669 345.763 737.669 346.86C737.669 347.945 737.896 348.925 738.351 349.8C738.806 350.675 739.442 351.363 740.259 351.865C741.075 352.367 742.032 352.617 743.129 352.617ZM762.804 342.117L759.024 354H756.679L753.161 339.632H755.296L758.026 351.777L761.771 339.912H763.836L767.564 351.777L770.329 339.632H772.464L768.964 354H766.619L762.804 342.117ZM777.095 347.052C777.107 348.056 777.305 348.995 777.69 349.87C778.087 350.745 778.682 351.451 779.475 351.987C780.269 352.524 781.266 352.792 782.468 352.792C783.448 352.792 784.265 352.635 784.918 352.32C785.583 351.993 786.108 351.62 786.493 351.2C786.89 350.768 787.17 350.383 787.333 350.045L788.575 351.27C788.144 351.935 787.642 352.507 787.07 352.985C786.51 353.452 785.845 353.807 785.075 354.053C784.317 354.298 783.413 354.42 782.363 354.42C780.835 354.42 779.528 354.082 778.443 353.405C777.37 352.717 776.547 351.783 775.975 350.605C775.415 349.427 775.135 348.102 775.135 346.632C775.135 345.232 775.415 343.972 775.975 342.852C776.535 341.732 777.34 340.846 778.39 340.192C779.452 339.539 780.73 339.212 782.223 339.212C783.576 339.212 784.749 339.51 785.74 340.105C786.744 340.7 787.52 341.528 788.068 342.59C788.628 343.64 788.908 344.865 788.908 346.265C788.908 346.37 788.902 346.504 788.89 346.667C788.89 346.831 788.885 346.959 788.873 347.052H777.095ZM786.913 345.39C786.901 344.76 786.744 344.095 786.44 343.395C786.149 342.683 785.665 342.082 784.988 341.592C784.323 341.091 783.407 340.84 782.24 340.84C781.027 340.84 780.059 341.085 779.335 341.575C778.624 342.053 778.105 342.642 777.778 343.342C777.451 344.042 777.253 344.725 777.183 345.39H786.913ZM794.658 354H792.698V339.632H794.658V342.222H794.571C794.617 341.919 794.827 341.534 795.201 341.067C795.586 340.589 796.105 340.163 796.758 339.79C797.412 339.405 798.182 339.212 799.068 339.212C799.745 339.212 800.322 339.3 800.801 339.475C801.291 339.638 801.629 339.807 801.816 339.982L800.941 341.68C800.789 341.528 800.503 341.377 800.083 341.225C799.675 341.073 799.179 340.997 798.596 340.997C797.791 340.997 797.091 341.266 796.496 341.802C795.912 342.339 795.457 342.981 795.131 343.727C794.816 344.462 794.658 345.139 794.658 345.757V354ZM804.61 347.052C804.622 348.056 804.82 348.995 805.205 349.87C805.602 350.745 806.197 351.451 806.99 351.987C807.783 352.524 808.781 352.792 809.983 352.792C810.963 352.792 811.779 352.635 812.433 352.32C813.098 351.993 813.623 351.62 814.008 351.2C814.404 350.768 814.684 350.383 814.848 350.045L816.09 351.27C815.658 351.935 815.157 352.507 814.585 352.985C814.025 353.452 813.36 353.807 812.59 354.053C811.832 354.298 810.928 354.42 809.878 354.42C808.349 354.42 807.043 354.082 805.958 353.405C804.884 352.717 804.062 351.783 803.49 350.605C802.93 349.427 802.65 348.102 802.65 346.632C802.65 345.232 802.93 343.972 803.49 342.852C804.05 341.732 804.855 340.846 805.905 340.192C806.967 339.539 808.244 339.212 809.738 339.212C811.091 339.212 812.263 339.51 813.255 340.105C814.258 340.7 815.034 341.528 815.583 342.59C816.143 343.64 816.423 344.865 816.423 346.265C816.423 346.37 816.417 346.504 816.405 346.667C816.405 346.831 816.399 346.959 816.388 347.052H804.61ZM814.428 345.39C814.416 344.76 814.258 344.095 813.955 343.395C813.663 342.683 813.179 342.082 812.503 341.592C811.838 341.091 810.922 340.84 809.755 340.84C808.542 340.84 807.573 341.085 806.85 341.575C806.138 342.053 805.619 342.642 805.293 343.342C804.966 344.042 804.768 344.725 804.698 345.39H814.428ZM826.478 354.42C825.183 354.42 824.01 354.122 822.96 353.527C821.91 352.921 821.076 352.052 820.458 350.92C819.84 349.777 819.53 348.412 819.53 346.825C819.53 345.238 819.84 343.879 820.458 342.747C821.076 341.604 821.91 340.729 822.96 340.122C824.01 339.516 825.183 339.212 826.478 339.212C827.586 339.212 828.566 339.417 829.418 339.825C830.27 340.233 830.946 340.706 831.448 341.242C831.95 341.767 832.224 342.222 832.27 342.607V329.92H834.3V354H832.323V350.99C832.241 351.363 831.944 351.818 831.43 352.355C830.929 352.892 830.252 353.37 829.4 353.79C828.549 354.21 827.575 354.42 826.478 354.42ZM826.723 352.67C827.738 352.67 828.665 352.431 829.505 351.952C830.345 351.474 831.016 350.797 831.518 349.922C832.02 349.047 832.27 348.015 832.27 346.825C832.27 345.635 832.02 344.602 831.518 343.727C831.016 342.852 830.345 342.176 829.505 341.697C828.665 341.207 827.738 340.962 826.723 340.962C825.813 340.962 824.961 341.202 824.168 341.68C823.386 342.147 822.75 342.817 822.26 343.692C821.77 344.567 821.525 345.612 821.525 346.825C821.525 348.038 821.77 349.082 822.26 349.957C822.75 350.832 823.386 351.503 824.168 351.97C824.961 352.437 825.813 352.67 826.723 352.67ZM861.969 330.9H863.947V354H861.969V330.9ZM876.295 339.212C877.205 339.212 878.091 339.411 878.955 339.807C879.818 340.192 880.53 340.811 881.09 341.662C881.65 342.502 881.93 343.593 881.93 344.935V354H879.9V345.407C879.9 343.809 879.526 342.66 878.78 341.96C878.033 341.248 877.076 340.892 875.91 340.892C875.14 340.892 874.393 341.114 873.67 341.557C872.958 342.001 872.369 342.607 871.902 343.377C871.447 344.147 871.22 345.011 871.22 345.967V354H869.225V339.632H871.22V342.397C871.301 341.989 871.575 341.54 872.042 341.05C872.52 340.548 873.127 340.117 873.862 339.755C874.609 339.393 875.42 339.212 876.295 339.212ZM891.229 339.212C891.894 339.212 892.518 339.288 893.101 339.44C893.696 339.58 894.215 339.761 894.659 339.982C895.102 340.192 895.434 340.385 895.656 340.56L894.694 341.942C894.449 341.709 894.023 341.464 893.416 341.207C892.809 340.939 892.127 340.805 891.369 340.805C890.435 340.805 889.636 340.997 888.971 341.382C888.318 341.767 887.991 342.327 887.991 343.062C887.991 343.774 888.324 344.34 888.989 344.76C889.654 345.18 890.529 345.524 891.614 345.792C892.442 346.002 893.194 346.265 893.871 346.58C894.559 346.895 895.108 347.327 895.516 347.875C895.924 348.412 896.129 349.129 896.129 350.027C896.129 350.797 895.971 351.462 895.656 352.022C895.341 352.571 894.909 353.02 894.361 353.37C893.824 353.72 893.212 353.983 892.524 354.158C891.835 354.333 891.112 354.42 890.354 354.42C889.572 354.42 888.849 354.333 888.184 354.158C887.519 353.983 886.947 353.772 886.469 353.527C886.002 353.282 885.646 353.055 885.401 352.845L886.399 351.287C886.702 351.602 887.198 351.929 887.886 352.267C888.586 352.594 889.403 352.757 890.336 352.757C891.421 352.757 892.314 352.507 893.014 352.005C893.725 351.503 894.081 350.844 894.081 350.027C894.081 349.432 893.912 348.954 893.574 348.592C893.235 348.231 892.792 347.945 892.244 347.735C891.695 347.513 891.112 347.327 890.494 347.175C889.899 347.023 889.327 346.842 888.779 346.632C888.242 346.411 887.764 346.137 887.344 345.81C886.924 345.483 886.591 345.092 886.346 344.637C886.113 344.171 885.996 343.628 885.996 343.01C885.996 342.24 886.235 341.575 886.714 341.015C887.192 340.443 887.828 340 888.621 339.685C889.426 339.37 890.295 339.212 891.229 339.212ZM900.386 354V339.632H902.364V354H900.386ZM901.401 333.805C900.981 333.805 900.62 333.659 900.316 333.367C900.025 333.064 899.879 332.702 899.879 332.282C899.879 331.851 900.031 331.489 900.334 331.197C900.637 330.894 900.993 330.742 901.401 330.742C901.681 330.742 901.938 330.812 902.171 330.952C902.416 331.092 902.609 331.279 902.749 331.512C902.901 331.734 902.976 331.991 902.976 332.282C902.976 332.702 902.819 333.064 902.504 333.367C902.201 333.659 901.833 333.805 901.401 333.805ZM914.048 361.665C912.858 361.665 911.82 361.537 910.933 361.28C910.047 361.023 909.3 360.679 908.693 360.248C908.098 359.828 907.638 359.373 907.311 358.883L908.781 357.588C908.991 357.879 909.283 358.206 909.656 358.568C910.029 358.929 910.56 359.238 911.248 359.495C911.937 359.763 912.853 359.898 913.996 359.898C915.139 359.898 916.096 359.641 916.866 359.128C917.648 358.614 918.237 357.932 918.633 357.08C919.03 356.228 919.228 355.289 919.228 354.263V353.755H921.171V354.42C921.171 355.983 920.85 357.302 920.208 358.375C919.578 359.46 918.721 360.277 917.636 360.825C916.563 361.385 915.367 361.665 914.048 361.665ZM919.228 354V350.99C919.147 351.305 918.873 351.737 918.406 352.285C917.951 352.833 917.315 353.329 916.498 353.772C915.693 354.204 914.737 354.42 913.628 354.42C912.333 354.42 911.138 354.122 910.041 353.527C908.956 352.921 908.081 352.052 907.416 350.92C906.763 349.777 906.436 348.412 906.436 346.825C906.436 345.238 906.763 343.879 907.416 342.747C908.081 341.604 908.956 340.729 910.041 340.122C911.138 339.516 912.333 339.212 913.628 339.212C914.737 339.212 915.693 339.422 916.498 339.842C917.303 340.251 917.939 340.723 918.406 341.26C918.884 341.797 919.153 342.246 919.211 342.607V339.632H921.171V354H919.228ZM908.413 346.825C908.413 348.038 908.676 349.082 909.201 349.957C909.726 350.832 910.403 351.503 911.231 351.97C912.071 352.437 912.952 352.67 913.873 352.67C914.888 352.67 915.793 352.431 916.586 351.952C917.379 351.474 918.003 350.797 918.458 349.922C918.925 349.047 919.158 348.015 919.158 346.825C919.158 345.635 918.925 344.602 918.458 343.727C918.003 342.852 917.379 342.176 916.586 341.697C915.793 341.207 914.888 340.962 913.873 340.962C912.952 340.962 912.071 341.202 911.231 341.68C910.403 342.147 909.726 342.817 909.201 343.692C908.676 344.567 908.413 345.612 908.413 346.825ZM933.001 339.212C933.899 339.212 934.78 339.411 935.644 339.807C936.507 340.192 937.219 340.811 937.779 341.662C938.339 342.502 938.619 343.593 938.619 344.935V354H936.589V345.407C936.589 343.809 936.215 342.66 935.469 341.96C934.734 341.248 933.789 340.892 932.634 340.892C931.852 340.892 931.099 341.114 930.376 341.557C929.664 342.001 929.075 342.607 928.609 343.377C928.142 344.147 927.909 345.011 927.909 345.967V354H925.879V329.92H927.909V342.397C927.99 341.989 928.264 341.54 928.731 341.05C929.209 340.548 929.816 340.117 930.551 339.755C931.298 339.393 932.114 339.212 933.001 339.212ZM941.962 339.632H944.954V333.735H946.932V339.632H950.852V341.435H946.932V349.957C946.932 350.914 947.107 351.597 947.457 352.005C947.807 352.413 948.244 352.617 948.769 352.617C949.271 352.617 949.65 352.53 949.907 352.355C950.164 352.18 950.315 352.063 950.362 352.005L951.289 353.527C951.219 353.586 951.062 353.691 950.817 353.842C950.572 353.982 950.251 354.111 949.854 354.228C949.458 354.356 948.979 354.42 948.419 354.42C947.451 354.42 946.629 354.111 945.952 353.492C945.287 352.862 944.954 351.859 944.954 350.482V341.435H941.962V339.632ZM978.367 354V339.632H980.344V354H978.367ZM979.382 333.805C978.962 333.805 978.6 333.659 978.297 333.367C978.005 333.064 977.859 332.702 977.859 332.282C977.859 331.851 978.011 331.489 978.314 331.197C978.617 330.894 978.973 330.742 979.382 330.742C979.662 330.742 979.918 330.812 980.152 330.952C980.397 331.092 980.589 331.279 980.729 331.512C980.881 331.734 980.957 331.991 980.957 332.282C980.957 332.702 980.799 333.064 980.484 333.367C980.181 333.659 979.813 333.805 979.382 333.805ZM992.659 339.212C993.569 339.212 994.455 339.411 995.319 339.807C996.182 340.192 996.894 340.811 997.454 341.662C998.014 342.502 998.294 343.593 998.294 344.935V354H996.264V345.407C996.264 343.809 995.89 342.66 995.144 341.96C994.397 341.248 993.44 340.892 992.274 340.892C991.504 340.892 990.757 341.114 990.034 341.557C989.322 342.001 988.733 342.607 988.266 343.377C987.811 344.147 987.584 345.011 987.584 345.967V354H985.589V339.632H987.584V342.397C987.665 341.989 987.939 341.54 988.406 341.05C988.884 340.548 989.491 340.117 990.226 339.755C990.973 339.393 991.784 339.212 992.659 339.212ZM1001.49 339.632H1004.48V333.735H1006.46V339.632H1010.38V341.435H1006.46V349.957C1006.46 350.914 1006.63 351.597 1006.98 352.005C1007.33 352.413 1007.77 352.617 1008.29 352.617C1008.79 352.617 1009.17 352.53 1009.43 352.355C1009.69 352.18 1009.84 352.063 1009.89 352.005L1010.81 353.527C1010.74 353.586 1010.59 353.691 1010.34 353.842C1010.1 353.982 1009.77 354.111 1009.38 354.228C1008.98 354.356 1008.5 354.42 1007.94 354.42C1006.97 354.42 1006.15 354.111 1005.48 353.492C1004.81 352.862 1004.48 351.859 1004.48 350.482V341.435H1001.49V339.632ZM1020.12 354.42C1018.68 354.42 1017.41 354.088 1016.29 353.423C1015.18 352.746 1014.3 351.836 1013.66 350.692C1013.03 349.549 1012.72 348.272 1012.72 346.86C1012.72 345.448 1013.03 344.165 1013.66 343.01C1014.3 341.843 1015.18 340.922 1016.29 340.245C1017.41 339.557 1018.68 339.212 1020.12 339.212C1021.55 339.212 1022.82 339.557 1023.92 340.245C1025.03 340.922 1025.89 341.843 1026.52 343.01C1027.15 344.165 1027.47 345.448 1027.47 346.86C1027.47 348.272 1027.15 349.549 1026.52 350.692C1025.89 351.836 1025.03 352.746 1023.92 353.423C1022.82 354.088 1021.55 354.42 1020.12 354.42ZM1020.12 352.617C1021.2 352.617 1022.15 352.367 1022.95 351.865C1023.77 351.363 1024.4 350.675 1024.84 349.8C1025.3 348.925 1025.53 347.945 1025.53 346.86C1025.53 345.763 1025.3 344.777 1024.84 343.902C1024.4 343.016 1023.77 342.316 1022.95 341.802C1022.15 341.277 1021.2 341.015 1020.12 341.015C1019.02 341.015 1018.07 341.277 1017.25 341.802C1016.43 342.316 1015.8 343.016 1015.34 343.902C1014.89 344.777 1014.66 345.763 1014.66 346.86C1014.66 347.945 1014.89 348.925 1015.34 349.8C1015.8 350.675 1016.43 351.363 1017.25 351.865C1018.07 352.367 1019.02 352.617 1020.12 352.617ZM1054.85 330.9H1066.28V332.737H1056.78V341.505H1065.67V343.342H1056.78V354H1054.85V330.9ZM1070.7 354V339.632H1072.68V354H1070.7ZM1071.72 333.805C1071.3 333.805 1070.94 333.659 1070.63 333.367C1070.34 333.064 1070.19 332.702 1070.19 332.282C1070.19 331.851 1070.35 331.489 1070.65 331.197C1070.95 330.894 1071.31 330.742 1071.72 330.742C1072 330.742 1072.25 330.812 1072.49 330.952C1072.73 331.092 1072.92 331.279 1073.06 331.512C1073.22 331.734 1073.29 331.991 1073.29 332.282C1073.29 332.702 1073.13 333.064 1072.82 333.367C1072.52 333.659 1072.15 333.805 1071.72 333.805ZM1084.99 339.212C1085.9 339.212 1086.79 339.411 1087.65 339.807C1088.52 340.192 1089.23 340.811 1089.79 341.662C1090.35 342.502 1090.63 343.593 1090.63 344.935V354H1088.6V345.407C1088.6 343.809 1088.23 342.66 1087.48 341.96C1086.73 341.248 1085.78 340.892 1084.61 340.892C1083.84 340.892 1083.09 341.114 1082.37 341.557C1081.66 342.001 1081.07 342.607 1080.6 343.377C1080.15 344.147 1079.92 345.011 1079.92 345.967V354H1077.92V339.632H1079.92V342.397C1080 341.989 1080.27 341.54 1080.74 341.05C1081.22 340.548 1081.83 340.117 1082.56 339.755C1083.31 339.393 1084.12 339.212 1084.99 339.212ZM1106.77 354V350.99C1106.69 351.305 1106.41 351.737 1105.95 352.285C1105.49 352.833 1104.86 353.329 1104.04 353.772C1103.24 354.204 1102.28 354.42 1101.17 354.42C1099.88 354.42 1098.68 354.122 1097.58 353.527C1096.5 352.921 1095.62 352.052 1094.96 350.92C1094.3 349.777 1093.98 348.412 1093.98 346.825C1093.98 345.238 1094.3 343.879 1094.96 342.747C1095.62 341.604 1096.5 340.729 1097.58 340.122C1098.68 339.516 1099.88 339.212 1101.17 339.212C1102.28 339.212 1103.24 339.422 1104.04 339.842C1104.85 340.251 1105.48 340.723 1105.95 341.26C1106.43 341.797 1106.69 342.246 1106.75 342.607V339.632H1108.71V354H1106.77ZM1095.96 346.825C1095.96 348.038 1096.22 349.082 1096.74 349.957C1097.27 350.832 1097.94 351.503 1098.77 351.97C1099.61 352.437 1100.49 352.67 1101.42 352.67C1102.43 352.67 1103.33 352.431 1104.13 351.952C1104.92 351.474 1105.55 350.797 1106 349.922C1106.47 349.047 1106.7 348.015 1106.7 346.825C1106.7 345.635 1106.47 344.602 1106 343.727C1105.55 342.852 1104.92 342.176 1104.13 341.697C1103.33 341.207 1102.43 340.962 1101.42 340.962C1100.49 340.962 1099.61 341.202 1098.77 341.68C1097.94 342.147 1097.27 342.817 1096.74 343.692C1096.22 344.567 1095.96 345.612 1095.96 346.825ZM1120.3 339.212C1121.21 339.212 1122.1 339.411 1122.96 339.807C1123.83 340.192 1124.54 340.811 1125.1 341.662C1125.66 342.502 1125.94 343.593 1125.94 344.935V354H1123.91V345.407C1123.91 343.809 1123.53 342.66 1122.79 341.96C1122.04 341.248 1121.08 340.892 1119.92 340.892C1119.15 340.892 1118.4 341.114 1117.68 341.557C1116.97 342.001 1116.38 342.607 1115.91 343.377C1115.45 344.147 1115.23 345.011 1115.23 345.967V354H1113.23V339.632H1115.23V342.397C1115.31 341.989 1115.58 341.54 1116.05 341.05C1116.53 340.548 1117.13 340.117 1117.87 339.755C1118.62 339.393 1119.43 339.212 1120.3 339.212ZM1136.65 352.67C1137.68 352.67 1138.5 352.512 1139.12 352.197C1139.74 351.871 1140.12 351.643 1140.26 351.515L1141.31 353.055C1141.21 353.125 1140.95 353.277 1140.52 353.51C1140.09 353.732 1139.53 353.936 1138.84 354.123C1138.16 354.321 1137.39 354.42 1136.53 354.42C1135.38 354.42 1134.26 354.134 1133.19 353.562C1132.11 352.991 1131.23 352.139 1130.53 351.007C1129.84 349.876 1129.5 348.476 1129.5 346.807C1129.5 345.127 1129.84 343.727 1130.53 342.607C1131.23 341.476 1132.11 340.63 1133.19 340.07C1134.26 339.498 1135.38 339.212 1136.53 339.212C1137.39 339.212 1138.15 339.317 1138.81 339.527C1139.46 339.737 1140 339.971 1140.42 340.227C1140.84 340.484 1141.1 340.671 1141.2 340.787L1140.17 342.31C1140.07 342.217 1139.87 342.065 1139.58 341.855C1139.3 341.633 1138.91 341.429 1138.42 341.242C1137.93 341.056 1137.34 340.962 1136.65 340.962C1135.82 340.962 1135.01 341.19 1134.2 341.645C1133.4 342.1 1132.73 342.765 1132.21 343.64C1131.69 344.503 1131.44 345.559 1131.44 346.807C1131.44 348.056 1131.69 349.117 1132.21 349.992C1132.73 350.867 1133.4 351.532 1134.2 351.987C1135.01 352.442 1135.82 352.67 1136.65 352.67ZM1145.57 347.052C1145.58 348.056 1145.78 348.995 1146.16 349.87C1146.56 350.745 1147.15 351.451 1147.95 351.987C1148.74 352.524 1149.74 352.792 1150.94 352.792C1151.92 352.792 1152.74 352.635 1153.39 352.32C1154.05 351.993 1154.58 351.62 1154.96 351.2C1155.36 350.768 1155.64 350.383 1155.8 350.045L1157.05 351.27C1156.62 351.935 1156.11 352.507 1155.54 352.985C1154.98 353.452 1154.32 353.807 1153.55 354.053C1152.79 354.298 1151.88 354.42 1150.83 354.42C1149.31 354.42 1148 354.082 1146.91 353.405C1145.84 352.717 1145.02 351.783 1144.45 350.605C1143.89 349.427 1143.61 348.102 1143.61 346.632C1143.61 345.232 1143.89 343.972 1144.45 342.852C1145.01 341.732 1145.81 340.846 1146.86 340.192C1147.92 339.539 1149.2 339.212 1150.69 339.212C1152.05 339.212 1153.22 339.51 1154.21 340.105C1155.22 340.7 1155.99 341.528 1156.54 342.59C1157.1 343.64 1157.38 344.865 1157.38 346.265C1157.38 346.37 1157.37 346.504 1157.36 346.667C1157.36 346.831 1157.36 346.959 1157.34 347.052H1145.57ZM1155.38 345.39C1155.37 344.76 1155.22 344.095 1154.91 343.395C1154.62 342.683 1154.14 342.082 1153.46 341.592C1152.79 341.091 1151.88 340.84 1150.71 340.84C1149.5 340.84 1148.53 341.085 1147.81 341.575C1147.1 342.053 1146.58 342.642 1146.25 343.342C1145.92 344.042 1145.72 344.725 1145.65 345.39H1155.38ZM611.153 365.9H624.313V367.737H613.095V376.505H624.033V378.325H613.095V387.162H624.313V389H611.153V365.9ZM636.633 381.457L642.915 389H640.535L635.373 382.682L630.228 389H627.935L634.183 381.527L628.565 374.632H630.963L635.425 380.215L639.958 374.632H642.233L636.633 381.457ZM648.334 396.28H646.339V374.632H648.387V377.607C648.457 377.222 648.737 376.767 649.227 376.242C649.728 375.706 650.399 375.233 651.239 374.825C652.091 374.417 653.071 374.212 654.179 374.212C655.486 374.212 656.658 374.516 657.697 375.122C658.747 375.729 659.581 376.604 660.199 377.747C660.818 378.879 661.127 380.238 661.127 381.825C661.127 383.412 660.812 384.777 660.182 385.92C659.563 387.052 658.729 387.921 657.679 388.527C656.629 389.122 655.451 389.42 654.144 389.42C653.013 389.42 652.015 389.204 651.152 388.772C650.3 388.341 649.629 387.851 649.139 387.302C648.661 386.754 648.393 386.317 648.334 385.99V396.28ZM659.132 381.825C659.132 380.612 658.887 379.567 658.397 378.692C657.907 377.817 657.265 377.147 656.472 376.68C655.69 376.202 654.838 375.962 653.917 375.962C652.902 375.962 651.974 376.207 651.134 376.697C650.294 377.176 649.623 377.852 649.122 378.727C648.632 379.602 648.387 380.635 648.387 381.825C648.387 383.015 648.632 384.047 649.122 384.922C649.623 385.797 650.294 386.474 651.134 386.952C651.974 387.431 652.902 387.67 653.917 387.67C654.838 387.67 655.69 387.437 656.472 386.97C657.265 386.503 657.907 385.832 658.397 384.957C658.887 384.082 659.132 383.038 659.132 381.825ZM666.708 389H664.678V364.92H666.708V389ZM677.846 389.42C676.411 389.42 675.133 389.088 674.013 388.423C672.905 387.746 672.03 386.836 671.388 385.692C670.758 384.549 670.443 383.272 670.443 381.86C670.443 380.448 670.758 379.165 671.388 378.01C672.03 376.843 672.905 375.922 674.013 375.245C675.133 374.557 676.411 374.212 677.846 374.212C679.281 374.212 680.546 374.557 681.643 375.245C682.751 375.922 683.621 376.843 684.251 378.01C684.881 379.165 685.196 380.448 685.196 381.86C685.196 383.272 684.881 384.549 684.251 385.692C683.621 386.836 682.751 387.746 681.643 388.423C680.546 389.088 679.281 389.42 677.846 389.42ZM677.846 387.617C678.931 387.617 679.876 387.367 680.681 386.865C681.497 386.363 682.127 385.675 682.571 384.8C683.026 383.925 683.253 382.945 683.253 381.86C683.253 380.763 683.026 379.777 682.571 378.902C682.127 378.016 681.497 377.316 680.681 376.802C679.876 376.277 678.931 376.015 677.846 376.015C676.749 376.015 675.792 376.277 674.976 376.802C674.159 377.316 673.523 378.016 673.068 378.902C672.613 379.777 672.386 380.763 672.386 381.86C672.386 382.945 672.613 383.925 673.068 384.8C673.523 385.675 674.159 386.363 674.976 386.865C675.792 387.367 676.749 387.617 677.846 387.617ZM690.923 389H688.963V374.632H690.923V377.222H690.835C690.882 376.919 691.092 376.534 691.465 376.067C691.85 375.589 692.37 375.163 693.023 374.79C693.676 374.405 694.446 374.212 695.333 374.212C696.01 374.212 696.587 374.3 697.065 374.475C697.555 374.638 697.894 374.807 698.08 374.982L697.205 376.68C697.054 376.528 696.768 376.377 696.348 376.225C695.94 376.073 695.444 375.997 694.86 375.997C694.055 375.997 693.355 376.266 692.76 376.802C692.177 377.339 691.722 377.981 691.395 378.727C691.08 379.462 690.923 380.139 690.923 380.757V389ZM700.692 389V374.632H702.67V389H700.692ZM701.707 368.805C701.287 368.805 700.926 368.659 700.622 368.367C700.331 368.064 700.185 367.702 700.185 367.282C700.185 366.851 700.337 366.489 700.64 366.197C700.943 365.894 701.299 365.742 701.707 365.742C701.987 365.742 702.244 365.812 702.477 365.952C702.722 366.092 702.915 366.279 703.055 366.512C703.207 366.734 703.282 366.991 703.282 367.282C703.282 367.702 703.125 368.064 702.81 368.367C702.507 368.659 702.139 368.805 701.707 368.805ZM714.984 374.212C715.894 374.212 716.781 374.411 717.644 374.807C718.508 375.192 719.219 375.811 719.779 376.662C720.339 377.502 720.619 378.593 720.619 379.935V389H718.589V380.407C718.589 378.809 718.216 377.66 717.469 376.96C716.723 376.248 715.766 375.892 714.599 375.892C713.829 375.892 713.083 376.114 712.359 376.557C711.648 377.001 711.059 377.607 710.592 378.377C710.137 379.147 709.909 380.011 709.909 380.967V389H707.914V374.632H709.909V377.397C709.991 376.989 710.265 376.54 710.732 376.05C711.21 375.548 711.817 375.117 712.552 374.755C713.299 374.393 714.109 374.212 714.984 374.212ZM731.581 396.665C730.391 396.665 729.353 396.537 728.466 396.28C727.579 396.023 726.833 395.679 726.226 395.248C725.631 394.828 725.17 394.373 724.843 393.883L726.313 392.588C726.523 392.879 726.815 393.206 727.188 393.568C727.562 393.929 728.093 394.238 728.781 394.495C729.469 394.763 730.385 394.898 731.528 394.898C732.672 394.898 733.628 394.641 734.398 394.128C735.18 393.614 735.769 392.932 736.166 392.08C736.563 391.228 736.761 390.289 736.761 389.263V388.755H738.703V389.42C738.703 390.983 738.383 392.302 737.741 393.375C737.111 394.46 736.253 395.277 735.168 395.825C734.095 396.385 732.899 396.665 731.581 396.665ZM736.761 389V385.99C736.679 386.305 736.405 386.737 735.938 387.285C735.483 387.833 734.848 388.329 734.031 388.772C733.226 389.204 732.269 389.42 731.161 389.42C729.866 389.42 728.67 389.122 727.573 388.527C726.488 387.921 725.613 387.052 724.948 385.92C724.295 384.777 723.968 383.412 723.968 381.825C723.968 380.238 724.295 378.879 724.948 377.747C725.613 376.604 726.488 375.729 727.573 375.122C728.67 374.516 729.866 374.212 731.161 374.212C732.269 374.212 733.226 374.422 734.031 374.842C734.836 375.251 735.472 375.723 735.938 376.26C736.417 376.797 736.685 377.246 736.743 377.607V374.632H738.703V389H736.761ZM725.946 381.825C725.946 383.038 726.208 384.082 726.733 384.957C727.258 385.832 727.935 386.503 728.763 386.97C729.603 387.437 730.484 387.67 731.406 387.67C732.421 387.67 733.325 387.431 734.118 386.952C734.912 386.474 735.536 385.797 735.991 384.922C736.458 384.047 736.691 383.015 736.691 381.825C736.691 380.635 736.458 379.602 735.991 378.727C735.536 377.852 734.912 377.176 734.118 376.697C733.325 376.207 732.421 375.962 731.406 375.962C730.484 375.962 729.603 376.202 728.763 376.68C727.935 377.147 727.258 377.817 726.733 378.692C726.208 379.567 725.946 380.612 725.946 381.825ZM758.883 374.632H761.875V368.735H763.853V374.632H767.773V376.435H763.853V384.957C763.853 385.914 764.028 386.597 764.378 387.005C764.728 387.413 765.165 387.617 765.69 387.617C766.192 387.617 766.571 387.53 766.828 387.355C767.085 387.18 767.236 387.063 767.283 387.005L768.21 388.527C768.14 388.586 767.983 388.691 767.738 388.842C767.493 388.982 767.172 389.111 766.775 389.228C766.379 389.356 765.9 389.42 765.34 389.42C764.372 389.42 763.55 389.111 762.873 388.492C762.208 387.862 761.875 386.859 761.875 385.482V376.435H758.883V374.632ZM778.462 374.212C779.361 374.212 780.241 374.411 781.105 374.807C781.968 375.192 782.68 375.811 783.24 376.662C783.8 377.502 784.08 378.593 784.08 379.935V389H782.05V380.407C782.05 378.809 781.676 377.66 780.93 376.96C780.195 376.248 779.25 375.892 778.095 375.892C777.313 375.892 776.561 376.114 775.837 376.557C775.126 377.001 774.536 377.607 774.07 378.377C773.603 379.147 773.37 380.011 773.37 380.967V389H771.34V364.92H773.37V377.397C773.451 376.989 773.726 376.54 774.192 376.05C774.671 375.548 775.277 375.117 776.012 374.755C776.759 374.393 777.576 374.212 778.462 374.212ZM789.54 382.052C789.552 383.056 789.75 383.995 790.135 384.87C790.532 385.745 791.127 386.451 791.92 386.987C792.714 387.524 793.711 387.792 794.913 387.792C795.893 387.792 796.71 387.635 797.363 387.32C798.028 386.993 798.553 386.62 798.938 386.2C799.335 385.768 799.615 385.383 799.778 385.045L801.02 386.27C800.589 386.935 800.087 387.507 799.515 387.985C798.955 388.452 798.29 388.807 797.52 389.053C796.762 389.298 795.858 389.42 794.808 389.42C793.28 389.42 791.973 389.082 790.888 388.405C789.815 387.717 788.992 386.783 788.42 385.605C787.86 384.427 787.58 383.102 787.58 381.632C787.58 380.232 787.86 378.972 788.42 377.852C788.98 376.732 789.785 375.846 790.835 375.192C791.897 374.539 793.175 374.212 794.668 374.212C796.021 374.212 797.194 374.51 798.185 375.105C799.189 375.7 799.965 376.528 800.513 377.59C801.073 378.64 801.353 379.865 801.353 381.265C801.353 381.37 801.347 381.504 801.335 381.667C801.335 381.831 801.33 381.959 801.318 382.052H789.54ZM799.358 380.39C799.346 379.76 799.189 379.095 798.885 378.395C798.594 377.683 798.11 377.082 797.433 376.592C796.768 376.091 795.852 375.84 794.685 375.84C793.472 375.84 792.504 376.085 791.78 376.575C791.069 377.053 790.55 377.642 790.223 378.342C789.896 379.042 789.698 379.725 789.628 380.39H799.358ZM826.968 367.737H820.388V365.9H835.525V367.737H828.945V389H826.968V367.737ZM836.986 382.052C836.997 383.056 837.196 383.995 837.581 384.87C837.977 385.745 838.572 386.451 839.366 386.987C840.159 387.524 841.156 387.792 842.358 387.792C843.338 387.792 844.155 387.635 844.808 387.32C845.473 386.993 845.998 386.62 846.383 386.2C846.78 385.768 847.06 385.383 847.223 385.045L848.466 386.27C848.034 386.935 847.532 387.507 846.961 387.985C846.401 388.452 845.736 388.807 844.966 389.053C844.207 389.298 843.303 389.42 842.253 389.42C840.725 389.42 839.418 389.082 838.333 388.405C837.26 387.717 836.437 386.783 835.866 385.605C835.306 384.427 835.026 383.102 835.026 381.632C835.026 380.232 835.306 378.972 835.866 377.852C836.426 376.732 837.231 375.846 838.281 375.192C839.342 374.539 840.62 374.212 842.113 374.212C843.466 374.212 844.639 374.51 845.631 375.105C846.634 375.7 847.41 376.528 847.958 377.59C848.518 378.64 848.798 379.865 848.798 381.265C848.798 381.37 848.792 381.504 848.781 381.667C848.781 381.831 848.775 381.959 848.763 382.052H836.986ZM846.803 380.39C846.791 379.76 846.634 379.095 846.331 378.395C846.039 377.683 845.555 377.082 844.878 376.592C844.213 376.091 843.297 375.84 842.131 375.84C840.917 375.84 839.949 376.085 839.226 376.575C838.514 377.053 837.995 377.642 837.668 378.342C837.341 379.042 837.143 379.725 837.073 380.39H846.803ZM859.711 374.212C860.609 374.212 861.49 374.411 862.353 374.807C863.217 375.192 863.928 375.811 864.488 376.662C865.048 377.502 865.328 378.593 865.328 379.935V389H863.298V380.407C863.298 378.809 862.925 377.66 862.178 376.96C861.443 376.248 860.498 375.892 859.343 375.892C858.562 375.892 857.809 376.114 857.086 376.557C856.374 377.001 855.785 377.607 855.318 378.377C854.852 379.147 854.618 380.011 854.618 380.967V389H852.588V364.92H854.618V377.397C854.7 376.989 854.974 376.54 855.441 376.05C855.919 375.548 856.526 375.117 857.261 374.755C858.008 374.393 858.824 374.212 859.711 374.212ZM872.014 389H870.054V374.632H872.014V377.222H871.927C871.973 376.919 872.183 376.534 872.557 376.067C872.942 375.589 873.461 375.163 874.114 374.79C874.768 374.405 875.538 374.212 876.424 374.212C877.101 374.212 877.678 374.3 878.157 374.475C878.647 374.638 878.985 374.807 879.172 374.982L878.297 376.68C878.145 376.528 877.859 376.377 877.439 376.225C877.031 376.073 876.535 375.997 875.952 375.997C875.147 375.997 874.447 376.266 873.852 376.802C873.268 377.339 872.813 377.981 872.487 378.727C872.172 379.462 872.014 380.139 872.014 380.757V389ZM892.799 389V385.99C892.717 386.305 892.443 386.737 891.976 387.285C891.521 387.833 890.885 388.329 890.069 388.772C889.264 389.204 888.307 389.42 887.199 389.42C885.904 389.42 884.708 389.122 883.611 388.527C882.526 387.921 881.651 387.052 880.986 385.92C880.333 384.777 880.006 383.412 880.006 381.825C880.006 380.238 880.333 378.879 880.986 377.747C881.651 376.604 882.526 375.729 883.611 375.122C884.708 374.516 885.904 374.212 887.199 374.212C888.307 374.212 889.264 374.422 890.069 374.842C890.874 375.251 891.509 375.723 891.976 376.26C892.454 376.797 892.723 377.246 892.781 377.607V374.632H894.741V389H892.799ZM881.984 381.825C881.984 383.038 882.246 384.082 882.771 384.957C883.296 385.832 883.973 386.503 884.801 386.97C885.641 387.437 886.522 387.67 887.444 387.67C888.459 387.67 889.363 387.431 890.156 386.952C890.949 386.474 891.574 385.797 892.029 384.922C892.495 384.047 892.729 383.015 892.729 381.825C892.729 380.635 892.495 379.602 892.029 378.727C891.574 377.852 890.949 377.176 890.156 376.697C889.363 376.207 888.459 375.962 887.444 375.962C886.522 375.962 885.641 376.202 884.801 376.68C883.973 377.147 883.296 377.817 882.771 378.692C882.246 379.567 881.984 380.612 881.984 381.825ZM906.33 374.212C907.24 374.212 908.126 374.411 908.99 374.807C909.853 375.192 910.565 375.811 911.125 376.662C911.685 377.502 911.965 378.593 911.965 379.935V389H909.935V380.407C909.935 378.809 909.561 377.66 908.815 376.96C908.068 376.248 907.111 375.892 905.945 375.892C905.175 375.892 904.428 376.114 903.705 376.557C902.993 377.001 902.404 377.607 901.937 378.377C901.482 379.147 901.255 380.011 901.255 380.967V389H899.26V374.632H901.255V377.397C901.336 376.989 901.61 376.54 902.077 376.05C902.555 375.548 903.162 375.117 903.897 374.755C904.644 374.393 905.455 374.212 906.33 374.212ZM940.008 365.48C941.291 365.48 942.382 365.632 943.28 365.935C944.19 366.238 944.902 366.559 945.415 366.897C945.929 367.224 946.226 367.434 946.308 367.527L945.223 369.172C945.048 369.021 944.739 368.799 944.295 368.507C943.864 368.216 943.304 367.953 942.615 367.72C941.927 367.475 941.11 367.352 940.165 367.352C938.66 367.352 937.476 367.667 936.613 368.297C935.75 368.927 935.318 369.802 935.318 370.923C935.318 371.681 935.545 372.346 936 372.917C936.455 373.477 937.074 373.985 937.855 374.44C938.649 374.895 939.541 375.35 940.533 375.805C941.315 376.155 942.096 376.546 942.878 376.977C943.671 377.409 944.395 377.917 945.048 378.5C945.713 379.083 946.244 379.76 946.64 380.53C947.049 381.3 947.253 382.192 947.253 383.207C947.253 384.129 947.066 384.969 946.693 385.727C946.32 386.486 945.789 387.145 945.1 387.705C944.424 388.253 943.619 388.679 942.685 388.982C941.752 389.274 940.725 389.42 939.605 389.42C938.275 389.42 937.068 389.251 935.983 388.912C934.898 388.562 934.023 388.207 933.358 387.845C932.693 387.472 932.325 387.25 932.255 387.18L933.428 385.447C933.568 385.564 933.813 385.739 934.163 385.972C934.525 386.194 934.974 386.427 935.51 386.672C936.047 386.917 936.665 387.122 937.365 387.285C938.077 387.448 938.847 387.53 939.675 387.53C941.472 387.53 942.831 387.11 943.753 386.27C944.686 385.43 945.153 384.374 945.153 383.102C945.153 382.111 944.855 381.265 944.26 380.565C943.665 379.853 942.901 379.229 941.968 378.692C941.035 378.156 940.06 377.648 939.045 377.17C937.972 376.668 936.998 376.132 936.123 375.56C935.248 374.988 934.548 374.323 934.023 373.565C933.498 372.807 933.235 371.897 933.235 370.835C933.235 369.797 933.533 368.875 934.128 368.07C934.735 367.265 935.545 366.635 936.56 366.18C937.587 365.713 938.736 365.48 940.008 365.48ZM949.989 374.632H952.981V368.735H954.959V374.632H958.879V376.435H954.959V384.957C954.959 385.914 955.134 386.597 955.484 387.005C955.834 387.413 956.271 387.617 956.796 387.617C957.298 387.617 957.677 387.53 957.934 387.355C958.191 387.18 958.342 387.063 958.389 387.005L959.316 388.527C959.246 388.586 959.089 388.691 958.844 388.842C958.599 388.982 958.278 389.111 957.881 389.228C957.485 389.356 957.006 389.42 956.446 389.42C955.478 389.42 954.656 389.111 953.979 388.492C953.314 387.862 952.981 386.859 952.981 385.482V376.435H949.989V374.632ZM968.623 389.42C967.188 389.42 965.911 389.088 964.791 388.423C963.682 387.746 962.807 386.836 962.166 385.692C961.536 384.549 961.221 383.272 961.221 381.86C961.221 380.448 961.536 379.165 962.166 378.01C962.807 376.843 963.682 375.922 964.791 375.245C965.911 374.557 967.188 374.212 968.623 374.212C970.058 374.212 971.324 374.557 972.421 375.245C973.529 375.922 974.398 376.843 975.028 378.01C975.658 379.165 975.973 380.448 975.973 381.86C975.973 383.272 975.658 384.549 975.028 385.692C974.398 386.836 973.529 387.746 972.421 388.423C971.324 389.088 970.058 389.42 968.623 389.42ZM968.623 387.617C969.708 387.617 970.653 387.367 971.458 386.865C972.275 386.363 972.905 385.675 973.348 384.8C973.803 383.925 974.031 382.945 974.031 381.86C974.031 380.763 973.803 379.777 973.348 378.902C972.905 378.016 972.275 377.316 971.458 376.802C970.653 376.277 969.708 376.015 968.623 376.015C967.526 376.015 966.57 376.277 965.753 376.802C964.936 377.316 964.301 378.016 963.846 378.902C963.391 379.777 963.163 380.763 963.163 381.86C963.163 382.945 963.391 383.925 963.846 384.8C964.301 385.675 964.936 386.363 965.753 386.865C966.57 387.367 967.526 387.617 968.623 387.617ZM985.883 387.67C986.91 387.67 987.732 387.512 988.351 387.197C988.969 386.871 989.348 386.643 989.488 386.515L990.538 388.055C990.445 388.125 990.182 388.277 989.751 388.51C989.319 388.732 988.759 388.936 988.071 389.123C987.394 389.321 986.624 389.42 985.761 389.42C984.606 389.42 983.491 389.134 982.418 388.562C981.345 387.991 980.458 387.139 979.758 386.007C979.07 384.876 978.726 383.476 978.726 381.807C978.726 380.127 979.07 378.727 979.758 377.607C980.458 376.476 981.345 375.63 982.418 375.07C983.491 374.498 984.606 374.212 985.761 374.212C986.624 374.212 987.382 374.317 988.036 374.527C988.689 374.737 989.226 374.971 989.646 375.227C990.066 375.484 990.328 375.671 990.433 375.787L989.401 377.31C989.296 377.217 989.097 377.065 988.806 376.855C988.526 376.633 988.141 376.429 987.651 376.242C987.161 376.056 986.571 375.962 985.883 375.962C985.055 375.962 984.238 376.19 983.433 376.645C982.628 377.1 981.963 377.765 981.438 378.64C980.925 379.503 980.668 380.559 980.668 381.807C980.668 383.056 980.925 384.117 981.438 384.992C981.963 385.867 982.628 386.532 983.433 386.987C984.238 387.442 985.055 387.67 985.883 387.67ZM1002.22 374.632H1004.81L997.107 381.475L1005.21 389H1002.6L995.427 382.367V389H993.432V364.92H995.427V380.652L1002.22 374.632ZM1024.64 365.9H1037.8V367.737H1026.58V376.505H1037.52V378.325H1026.58V387.162H1037.8V389H1024.64V365.9ZM1050.12 381.457L1056.4 389H1054.02L1048.86 382.682L1043.71 389H1041.42L1047.67 381.527L1042.05 374.632H1044.45L1048.91 380.215L1053.44 374.632H1055.72L1050.12 381.457ZM1065.66 387.67C1066.69 387.67 1067.51 387.512 1068.13 387.197C1068.75 386.871 1069.13 386.643 1069.27 386.515L1070.32 388.055C1070.22 388.125 1069.96 388.277 1069.53 388.51C1069.1 388.732 1068.54 388.936 1067.85 389.123C1067.17 389.321 1066.4 389.42 1065.54 389.42C1064.38 389.42 1063.27 389.134 1062.2 388.562C1061.12 387.991 1060.24 387.139 1059.54 386.007C1058.85 384.876 1058.5 383.476 1058.5 381.807C1058.5 380.127 1058.85 378.727 1059.54 377.607C1060.24 376.476 1061.12 375.63 1062.2 375.07C1063.27 374.498 1064.38 374.212 1065.54 374.212C1066.4 374.212 1067.16 374.317 1067.81 374.527C1068.47 374.737 1069 374.971 1069.42 375.227C1069.84 375.484 1070.11 375.671 1070.21 375.787L1069.18 377.31C1069.07 377.217 1068.88 377.065 1068.58 376.855C1068.3 376.633 1067.92 376.429 1067.43 376.242C1066.94 376.056 1066.35 375.962 1065.66 375.962C1064.83 375.962 1064.02 376.19 1063.21 376.645C1062.41 377.1 1061.74 377.765 1061.22 378.64C1060.7 379.503 1060.45 380.559 1060.45 381.807C1060.45 383.056 1060.7 384.117 1061.22 384.992C1061.74 385.867 1062.41 386.532 1063.21 386.987C1064.02 387.442 1064.83 387.67 1065.66 387.67ZM1080.96 374.212C1081.86 374.212 1082.74 374.411 1083.61 374.807C1084.47 375.192 1085.18 375.811 1085.74 376.662C1086.3 377.502 1086.58 378.593 1086.58 379.935V389H1084.55V380.407C1084.55 378.809 1084.18 377.66 1083.43 376.96C1082.7 376.248 1081.75 375.892 1080.6 375.892C1079.81 375.892 1079.06 376.114 1078.34 376.557C1077.63 377.001 1077.04 377.607 1076.57 378.377C1076.1 379.147 1075.87 380.011 1075.87 380.967V389H1073.84V364.92H1075.87V377.397C1075.95 376.989 1076.23 376.54 1076.69 376.05C1077.17 375.548 1077.78 375.117 1078.51 374.755C1079.26 374.393 1080.08 374.212 1080.96 374.212ZM1102.87 389V385.99C1102.79 386.305 1102.52 386.737 1102.05 387.285C1101.6 387.833 1100.96 388.329 1100.14 388.772C1099.34 389.204 1098.38 389.42 1097.27 389.42C1095.98 389.42 1094.78 389.122 1093.69 388.527C1092.6 387.921 1091.73 387.052 1091.06 385.92C1090.41 384.777 1090.08 383.412 1090.08 381.825C1090.08 380.238 1090.41 378.879 1091.06 377.747C1091.73 376.604 1092.6 375.729 1093.69 375.122C1094.78 374.516 1095.98 374.212 1097.27 374.212C1098.38 374.212 1099.34 374.422 1100.14 374.842C1100.95 375.251 1101.59 375.723 1102.05 376.26C1102.53 376.797 1102.8 377.246 1102.86 377.607V374.632H1104.82V389H1102.87ZM1092.06 381.825C1092.06 383.038 1092.32 384.082 1092.85 384.957C1093.37 385.832 1094.05 386.503 1094.88 386.97C1095.72 387.437 1096.6 387.67 1097.52 387.67C1098.53 387.67 1099.44 387.431 1100.23 386.952C1101.03 386.474 1101.65 385.797 1102.1 384.922C1102.57 384.047 1102.8 383.015 1102.8 381.825C1102.8 380.635 1102.57 379.602 1102.1 378.727C1101.65 377.852 1101.03 377.176 1100.23 376.697C1099.44 376.207 1098.53 375.962 1097.52 375.962C1096.6 375.962 1095.72 376.202 1094.88 376.68C1094.05 377.147 1093.37 377.817 1092.85 378.692C1092.32 379.567 1092.06 380.612 1092.06 381.825ZM1116.41 374.212C1117.32 374.212 1118.2 374.411 1119.07 374.807C1119.93 375.192 1120.64 375.811 1121.2 376.662C1121.76 377.502 1122.04 378.593 1122.04 379.935V389H1120.01V380.407C1120.01 378.809 1119.64 377.66 1118.89 376.96C1118.14 376.248 1117.19 375.892 1116.02 375.892C1115.25 375.892 1114.5 376.114 1113.78 376.557C1113.07 377.001 1112.48 377.607 1112.01 378.377C1111.56 379.147 1111.33 380.011 1111.33 380.967V389H1109.34V374.632H1111.33V377.397C1111.41 376.989 1111.69 376.54 1112.15 376.05C1112.63 375.548 1113.24 375.117 1113.97 374.755C1114.72 374.393 1115.53 374.212 1116.41 374.212ZM1133 396.665C1131.81 396.665 1130.77 396.537 1129.89 396.28C1129 396.023 1128.25 395.679 1127.65 395.248C1127.05 394.828 1126.59 394.373 1126.26 393.883L1127.73 392.588C1127.94 392.879 1128.24 393.206 1128.61 393.568C1128.98 393.929 1129.51 394.238 1130.2 394.495C1130.89 394.763 1131.81 394.898 1132.95 394.898C1134.09 394.898 1135.05 394.641 1135.82 394.128C1136.6 393.614 1137.19 392.932 1137.59 392.08C1137.98 391.228 1138.18 390.289 1138.18 389.263V388.755H1140.12V389.42C1140.12 390.983 1139.8 392.302 1139.16 393.375C1138.53 394.46 1137.67 395.277 1136.59 395.825C1135.52 396.385 1134.32 396.665 1133 396.665ZM1138.18 389V385.99C1138.1 386.305 1137.83 386.737 1137.36 387.285C1136.9 387.833 1136.27 388.329 1135.45 388.772C1134.65 389.204 1133.69 389.42 1132.58 389.42C1131.29 389.42 1130.09 389.122 1128.99 388.527C1127.91 387.921 1127.03 387.052 1126.37 385.92C1125.72 384.777 1125.39 383.412 1125.39 381.825C1125.39 380.238 1125.72 378.879 1126.37 377.747C1127.03 376.604 1127.91 375.729 1128.99 375.122C1130.09 374.516 1131.29 374.212 1132.58 374.212C1133.69 374.212 1134.65 374.422 1135.45 374.842C1136.26 375.251 1136.89 375.723 1137.36 376.26C1137.84 376.797 1138.11 377.246 1138.16 377.607V374.632H1140.12V389H1138.18ZM1127.37 381.825C1127.37 383.038 1127.63 384.082 1128.15 384.957C1128.68 385.832 1129.36 386.503 1130.18 386.97C1131.02 387.437 1131.91 387.67 1132.83 387.67C1133.84 387.67 1134.75 387.431 1135.54 386.952C1136.33 386.474 1136.96 385.797 1137.41 384.922C1137.88 384.047 1138.11 383.015 1138.11 381.825C1138.11 380.635 1137.88 379.602 1137.41 378.727C1136.96 377.852 1136.33 377.176 1135.54 376.697C1134.75 376.207 1133.84 375.962 1132.83 375.962C1131.91 375.962 1131.02 376.202 1130.18 376.68C1129.36 377.147 1128.68 377.817 1128.15 378.692C1127.63 379.567 1127.37 380.612 1127.37 381.825ZM1145.57 382.052C1145.58 383.056 1145.78 383.995 1146.16 384.87C1146.56 385.745 1147.15 386.451 1147.95 386.987C1148.74 387.524 1149.74 387.792 1150.94 387.792C1151.92 387.792 1152.74 387.635 1153.39 387.32C1154.05 386.993 1154.58 386.62 1154.96 386.2C1155.36 385.768 1155.64 385.383 1155.8 385.045L1157.05 386.27C1156.62 386.935 1156.11 387.507 1155.54 387.985C1154.98 388.452 1154.32 388.807 1153.55 389.053C1152.79 389.298 1151.88 389.42 1150.83 389.42C1149.31 389.42 1148 389.082 1146.91 388.405C1145.84 387.717 1145.02 386.783 1144.45 385.605C1143.89 384.427 1143.61 383.102 1143.61 381.632C1143.61 380.232 1143.89 378.972 1144.45 377.852C1145.01 376.732 1145.81 375.846 1146.86 375.192C1147.92 374.539 1149.2 374.212 1150.69 374.212C1152.05 374.212 1153.22 374.51 1154.21 375.105C1155.22 375.7 1155.99 376.528 1156.54 377.59C1157.1 378.64 1157.38 379.865 1157.38 381.265C1157.38 381.37 1157.37 381.504 1157.36 381.667C1157.36 381.831 1157.36 381.959 1157.34 382.052H1145.57ZM1155.38 380.39C1155.37 379.76 1155.22 379.095 1154.91 378.395C1154.62 377.683 1154.14 377.082 1153.46 376.592C1152.79 376.091 1151.88 375.84 1150.71 375.84C1149.5 375.84 1148.53 376.085 1147.81 376.575C1147.1 377.053 1146.58 377.642 1146.25 378.342C1145.92 379.042 1145.72 379.725 1145.65 380.39H1155.38Z" fill="black"/>
<line x1="612" y1="285" x2="1156.03" y2="285" stroke="black" stroke-width="6" stroke-linecap="round"/>
<path d="M1066 282H1063V288H1066V282ZM1156 288C1157.66 288 1159 286.657 1159 285C1159 283.343 1157.66 282 1156 282V288ZM1066 288H1156V282H1066V288Z" fill="#C08C2A"/>
</svg>
